<svg width="512" height="512" viewBox="0 0 512 512" fill="none" xmlns="http://www.w3.org/2000/svg">
<path d="M72.5062 351.743C73.1489 351.74 73.7915 351.736 74.4537 351.732C76.6099 351.723 78.7659 351.728 80.9222 351.733C82.4827 351.729 84.0432 351.725 85.6036 351.719C89.8943 351.707 94.1848 351.707 98.4754 351.71C103.102 351.71 107.729 351.699 112.355 351.689C121.421 351.673 130.487 351.667 139.553 351.666C146.923 351.665 154.292 351.661 161.662 351.655C182.555 351.637 203.447 351.628 224.34 351.63C226.03 351.63 226.03 351.63 227.754 351.63C228.882 351.63 230.01 351.63 231.172 351.63C249.449 351.631 267.726 351.612 286.003 351.583C304.768 351.555 323.534 351.541 342.299 351.543C352.835 351.543 363.37 351.538 373.906 351.516C382.878 351.498 391.849 351.494 400.821 351.507C405.397 351.514 409.973 351.514 414.55 351.497C418.743 351.481 422.935 351.484 427.128 351.501C428.642 351.504 430.155 351.501 431.669 351.489C443.26 351.41 452.55 352.808 461.246 361.012C467.596 368.21 470.502 376.852 470.242 386.391C469.431 395.132 466.181 401.772 460 408C453.332 413.416 447.08 416.247 438.386 416.258C437.423 416.263 437.423 416.263 436.44 416.268C434.292 416.278 432.144 416.273 429.995 416.268C428.438 416.272 426.881 416.276 425.324 416.282C421.047 416.294 416.77 416.293 412.493 416.291C407.879 416.291 403.266 416.302 398.652 416.311C389.614 416.328 380.575 416.333 371.537 416.334C364.19 416.335 356.842 416.34 349.495 416.346C328.664 416.363 307.832 416.373 287.001 416.371C285.878 416.371 284.755 416.371 283.598 416.371C282.473 416.371 281.349 416.371 280.19 416.371C261.968 416.37 243.746 416.389 225.524 416.417C206.813 416.446 188.102 416.46 169.391 416.458C158.887 416.457 148.382 416.463 137.878 416.484C128.934 416.503 119.99 416.507 111.046 416.493C106.483 416.487 101.921 416.487 97.3591 416.504C93.1792 416.52 88.9997 416.517 84.8198 416.5C83.3111 416.496 81.8023 416.5 80.2936 416.511C68.7163 416.591 59.4382 415.182 50.7538 406.989C44.4043 399.791 41.4976 391.148 41.7577 381.61C42.5685 372.874 45.815 366.221 51.9999 360C58.4135 354.872 64.1797 351.753 72.5062 351.743Z" fill="black"/>
<path d="M72.5062 223.743C73.1489 223.74 73.7915 223.736 74.4537 223.732C76.6099 223.723 78.7659 223.728 80.9222 223.733C82.4827 223.729 84.0432 223.725 85.6036 223.719C89.8943 223.707 94.1848 223.707 98.4754 223.71C103.102 223.71 107.729 223.699 112.355 223.689C121.421 223.673 130.487 223.667 139.553 223.666C146.923 223.665 154.292 223.661 161.662 223.655C182.555 223.637 203.447 223.628 224.34 223.63C226.03 223.63 226.03 223.63 227.754 223.63C228.882 223.63 230.01 223.63 231.172 223.63C249.449 223.631 267.726 223.612 286.003 223.583C304.768 223.555 323.534 223.541 342.299 223.543C352.835 223.543 363.37 223.538 373.906 223.516C382.878 223.498 391.849 223.494 400.821 223.507C405.397 223.514 409.973 223.514 414.55 223.497C418.743 223.481 422.935 223.484 427.128 223.501C428.642 223.504 430.155 223.501 431.669 223.489C443.26 223.41 452.55 224.808 461.246 233.012C467.596 240.21 470.502 248.852 470.242 258.391C469.431 267.132 466.181 273.772 460 280C453.332 285.416 447.08 288.247 438.386 288.258C437.423 288.263 437.423 288.263 436.44 288.268C434.292 288.278 432.144 288.273 429.995 288.268C428.438 288.272 426.881 288.276 425.324 288.282C421.047 288.294 416.77 288.293 412.493 288.291C407.879 288.291 403.266 288.302 398.652 288.311C389.614 288.328 380.575 288.333 371.537 288.334C364.19 288.335 356.842 288.34 349.495 288.346C328.664 288.363 307.832 288.373 287.001 288.371C285.878 288.371 284.755 288.371 283.598 288.371C282.473 288.371 281.349 288.371 280.19 288.371C261.968 288.37 243.746 288.389 225.524 288.417C206.813 288.446 188.102 288.46 169.391 288.458C158.887 288.457 148.382 288.463 137.878 288.484C128.934 288.503 119.99 288.507 111.046 288.493C106.483 288.487 101.921 288.487 97.3591 288.504C93.1792 288.52 88.9997 288.517 84.8198 288.5C83.3111 288.496 81.8023 288.5 80.2936 288.511C68.7163 288.591 59.4382 287.182 50.7538 278.989C44.4043 271.791 41.4976 263.148 41.7577 253.61C42.5685 244.874 45.815 238.221 51.9999 232C58.4135 226.872 64.1797 223.753 72.5062 223.743Z" fill="black"/>
<path d="M72.5062 95.7431C73.1489 95.7396 73.7915 95.7361 74.4537 95.7325C76.6099 95.7232 78.7659 95.7281 80.9222 95.7329C82.4827 95.7292 84.0432 95.7246 85.6036 95.7192C89.8943 95.707 94.1848 95.7073 98.4754 95.7096C103.102 95.71 107.729 95.699 112.355 95.6895C121.421 95.6729 130.487 95.6674 139.553 95.6663C146.923 95.6653 154.292 95.6612 161.662 95.6549C182.555 95.6373 203.447 95.628 224.34 95.6295C226.03 95.6296 226.03 95.6296 227.754 95.6298C228.882 95.6299 230.01 95.6299 231.172 95.63C249.449 95.6308 267.726 95.6117 286.003 95.5835C304.768 95.5548 323.534 95.541 342.299 95.5427C352.835 95.5433 363.37 95.5378 373.906 95.5163C382.878 95.4981 391.849 95.4938 400.821 95.5073C405.397 95.5139 409.973 95.514 414.55 95.4966C418.743 95.4809 422.935 95.4838 427.128 95.5012C428.642 95.5043 430.155 95.5006 431.669 95.4895C443.26 95.4097 452.55 96.8077 461.246 105.012C467.596 112.21 470.502 120.852 470.242 130.391C469.431 139.132 466.181 145.772 460 152C453.332 157.416 447.08 160.247 438.386 160.258C437.423 160.263 437.423 160.263 436.44 160.268C434.292 160.278 432.144 160.273 429.995 160.268C428.438 160.272 426.881 160.276 425.324 160.282C421.047 160.294 416.77 160.293 412.493 160.291C407.879 160.291 403.266 160.302 398.652 160.311C389.614 160.328 380.575 160.333 371.537 160.334C364.19 160.335 356.842 160.34 349.495 160.346C328.664 160.363 307.832 160.373 287.001 160.371C285.878 160.371 284.755 160.371 283.598 160.371C282.473 160.371 281.349 160.371 280.19 160.371C261.968 160.37 243.746 160.389 225.524 160.417C206.813 160.446 188.102 160.46 169.391 160.458C158.887 160.457 148.382 160.463 137.878 160.484C128.934 160.503 119.99 160.507 111.046 160.493C106.483 160.487 101.921 160.487 97.3591 160.504C93.1792 160.52 88.9997 160.517 84.8198 160.5C83.3111 160.496 81.8023 160.5 80.2936 160.511C68.7163 160.591 59.4382 159.182 50.7538 150.989C44.4043 143.791 41.4976 135.148 41.7577 125.61C42.5685 116.874 45.815 110.221 51.9999 104C58.4135 98.8717 64.1797 95.7534 72.5062 95.7431Z" fill="black"/>
</svg>
