<svg width="512" height="512" viewBox="0 0 512 512" fill="none" xmlns="http://www.w3.org/2000/svg">
<g clip-path="url(#clip0_923_3252)">
<path d="M83 14C85.4428 16.2169 87.7568 18.544 90.0625 20.9023C91.0159 21.8635 91.0159 21.8635 91.9885 22.8441C93.9972 24.8705 95.9991 26.9034 98 28.9375C100.002 30.9671 102.005 32.9951 104.011 35.0201C105.252 36.2728 106.49 37.5282 107.725 38.7868C110.523 41.6167 113.354 44.3302 116.395 46.8974C122.624 52.3251 128.379 58.2483 134.209 64.0954C135.53 65.4169 136.851 66.7381 138.173 68.0591C141.741 71.6266 145.306 75.1971 148.87 78.7682C152.602 82.507 156.337 86.2428 160.072 89.979C167.136 97.0458 174.197 104.115 181.257 111.185C189.299 119.238 197.343 127.288 205.388 135.338C221.929 151.889 238.465 168.443 255 185C259.89 180.928 264.482 176.654 268.963 172.137C269.627 171.472 270.292 170.806 270.976 170.12C273.186 167.905 275.393 165.686 277.599 163.467C279.189 161.871 280.78 160.276 282.371 158.681C285.789 155.253 289.206 151.823 292.621 148.393C298.027 142.964 303.438 137.54 308.85 132.116C316.441 124.509 324.031 116.901 331.62 109.291C332.341 108.567 332.341 108.567 333.077 107.829C340.868 100.016 348.655 92.199 356.442 84.381C364.453 76.3374 372.47 68.2998 380.491 60.267C385.868 54.8825 391.238 49.4915 396.603 44.0956C399.948 40.7341 403.3 37.3789 406.654 34.0254C408.202 32.4749 409.747 30.9218 411.29 29.3659C425.21 15.3316 437.843 3.84379 458.5 3.68749C470.919 3.66741 480.034 6.48948 490 14C490.866 14.5775 491.733 15.155 492.625 15.75C501.754 24.3984 507.36 36.516 508.203 49.0078C508.433 64.3155 504.34 76.633 493.797 87.7528C490.084 91.5585 486.311 95.3005 482.53 99.0378C480.833 100.733 479.138 102.429 477.443 104.126C473.335 108.236 469.215 112.335 465.089 116.428C460.285 121.196 455.496 125.979 450.707 130.762C442.168 139.29 433.618 147.806 425.061 156.316C416.754 164.578 408.452 172.844 400.157 181.118C399.645 181.629 399.132 182.14 398.605 182.666C396.035 185.229 393.465 187.792 390.896 190.356C369.613 211.587 348.312 232.799 327 254C328.777 257.803 330.986 260.235 333.97 263.217C334.481 263.73 334.991 264.243 335.517 264.772C337.229 266.489 338.948 268.199 340.667 269.909C341.896 271.14 343.124 272.37 344.353 273.601C347.691 276.945 351.036 280.282 354.382 283.618C357.887 287.114 361.386 290.614 364.885 294.114C370.768 299.996 376.655 305.875 382.544 311.75C389.341 318.531 396.133 325.318 402.922 332.107C410.159 339.345 417.399 346.578 424.641 353.811C426.721 355.889 428.801 357.968 430.881 360.047C434.16 363.326 437.441 366.601 440.725 369.875C441.926 371.072 443.125 372.271 444.324 373.47C449.872 379.02 455.42 384.516 461.389 389.618C463.433 391.372 465.367 393.22 467.285 395.108C468.023 395.833 468.761 396.558 469.521 397.305C470.288 398.065 471.056 398.826 471.848 399.609C472.663 400.417 473.479 401.224 474.319 402.056C476.032 403.756 477.744 405.457 479.454 407.159C481.19 408.884 482.931 410.604 484.676 412.319C487.222 414.823 489.755 417.339 492.285 419.859C493.055 420.612 493.825 421.364 494.618 422.14C505.979 433.545 512.32 445.838 512.5 462C512.347 475.725 508.404 486.169 498.898 496.223C488.126 506.405 475.43 510.084 460.824 509.977C444.968 509.179 432.275 502.955 421.23 491.711C420.515 490.999 419.8 490.288 419.063 489.554C416.694 487.192 414.339 484.815 411.984 482.438C410.279 480.732 408.573 479.027 406.866 477.322C402.731 473.187 398.604 469.044 394.482 464.896C389.68 460.066 384.868 455.247 380.055 450.43C371.473 441.839 362.899 433.239 354.332 424.634C346.014 416.279 337.692 407.929 329.364 399.584C328.85 399.069 328.336 398.554 327.806 398.023C325.227 395.438 322.647 392.854 320.068 390.269C298.699 368.859 277.345 347.434 256 326C251.051 330.147 246.406 334.463 241.868 339.052C241.185 339.739 240.502 340.425 239.799 341.132C237.527 343.416 235.258 345.704 232.99 347.992C231.355 349.637 229.72 351.282 228.084 352.926C224.57 356.461 221.057 359.997 217.544 363.533C211.983 369.132 206.416 374.723 200.847 380.314C199.896 381.268 198.946 382.223 197.995 383.177C196.554 384.623 195.113 386.069 193.673 387.515C188.251 392.958 182.829 398.401 177.409 403.845C176.914 404.343 176.419 404.84 175.909 405.352C167.892 413.404 159.885 421.464 151.881 429.528C143.644 437.826 135.395 446.112 127.136 454.388C122.507 459.027 117.884 463.672 113.273 468.33C108.935 472.714 104.582 477.084 100.218 481.443C98.6247 483.039 97.0368 484.64 95.4545 486.247C82.5381 499.356 70.9953 509.083 51.7778 509.38C36.6676 509.353 24.2853 507.78 12.8477 496.965C2.04834 485.562 -0.616584 473.205 -0.312498 457.969C0.733531 434.852 22.0958 418.753 37.3035 403.583C38.9211 401.966 40.5384 400.348 42.1556 398.73C46.512 394.374 50.8716 390.02 55.2317 385.667C59.8005 381.104 64.3665 376.539 68.9328 371.974C76.5863 364.323 84.2416 356.674 91.8982 349.026C99.7786 341.155 107.658 333.283 115.536 325.409C116.023 324.922 116.51 324.436 117.012 323.934C119.455 321.492 121.898 319.05 124.342 316.608C144.558 296.402 164.778 276.2 185 256C180.854 251.051 176.539 246.41 171.948 241.874C171.261 241.192 170.575 240.51 169.868 239.807C167.584 237.538 165.296 235.272 163.008 233.006C161.363 231.372 159.718 229.739 158.074 228.105C154.539 224.594 151.003 221.084 147.467 217.575C141.868 212.018 136.276 206.455 130.686 200.889C129.732 199.939 128.777 198.989 127.823 198.039C125.891 196.115 123.959 194.192 122.028 192.269C117.07 187.333 112.113 182.398 107.155 177.464C106.409 176.721 106.409 176.721 105.648 175.964C97.5977 167.954 89.5366 159.954 81.4719 151.958C73.1724 143.728 64.8863 135.485 56.6121 127.23C51.9738 122.604 47.3294 117.984 42.6696 113.379C38.2837 109.045 33.9145 104.694 29.5574 100.331C27.962 98.739 26.3607 97.153 24.7528 95.5737C11.7291 82.7713 2.26101 70.7001 1.625 51.8125C1.84709 37.849 7.20378 25.0188 17 15C36.8295 -1.14027 62.9251 -2.12859 83 14Z" fill="black"/>
</g>
<defs>
<clipPath id="clip0_923_3252">
<rect width="512" height="512" fill="white"/>
</clipPath>
</defs>
</svg>
